<svg width="36" height="37" viewBox="0 0 36 37" fill="none" xmlns="http://www.w3.org/2000/svg">
<path d="M18.041 0H17.959C8.04052 0 0 8.04289 0 17.9643V18.0463C0 27.9677 8.04052 36.0106 17.959 36.0106H18.041C27.9595 36.0106 36 27.9677 36 18.0463V17.9643C36 8.04289 27.9595 0 18.041 0Z" fill="#F97068"/>
<path d="M23.5703 7.32626H12.4309C9.35344 7.32626 6.84985 9.83059 6.84985 12.909V23.1029C6.84985 26.1813 9.35344 28.6856 12.4309 28.6856H23.5703C26.6478 28.6856 29.1514 26.1813 29.1514 23.1029V12.909C29.1514 9.83059 26.6478 7.32626 23.5703 7.32626ZM8.81867 12.909C8.81867 10.9169 10.4394 9.29566 12.4309 9.29566H23.5703C25.5618 9.29566 27.1825 10.9169 27.1825 12.909V23.1029C27.1825 25.095 25.5618 26.7162 23.5703 26.7162H12.4309C10.4394 26.7162 8.81867 25.095 8.81867 23.1029V12.909Z" fill="white"/>
<path d="M18.0004 23.1975C20.8622 23.1975 23.1917 20.8685 23.1917 18.0046C23.1917 15.1408 20.8635 12.8118 18.0004 12.8118C15.1374 12.8118 12.8091 15.1408 12.8091 18.0046C12.8091 20.8685 15.1374 23.1975 18.0004 23.1975ZM18.0004 14.7825C19.7775 14.7825 21.2229 16.2283 21.2229 18.0059C21.2229 19.7835 19.7775 21.2294 18.0004 21.2294C16.2233 21.2294 14.7779 19.7835 14.7779 18.0059C14.7779 16.2283 16.2233 14.7825 18.0004 14.7825Z" fill="white"/>
<path d="M23.6723 13.6508C24.4429 13.6508 25.071 13.0238 25.071 12.2517C25.071 11.4795 24.4442 10.8525 23.6723 10.8525C22.9004 10.8525 22.2736 11.4795 22.2736 12.2517C22.2736 13.0238 22.9004 13.6508 23.6723 13.6508Z" fill="white"/>
</svg>
