<svg width="36" height="37" viewBox="0 0 36 37" fill="none" xmlns="http://www.w3.org/2000/svg">
<path d="M18.041 0H17.959C8.04053 0 0 8.04289 0 17.9643V18.0463C0 27.9677 8.04053 36.0106 17.959 36.0106H18.041C27.9595 36.0106 36 27.9677 36 18.0463V17.9643C36 8.04289 27.9595 0 18.041 0Z"/>
<path d="M8.58538 11.969C8.11114 11.5287 7.87531 10.9837 7.87531 10.3352C7.87531 9.68676 8.11241 9.11777 8.58538 8.6762C9.05961 8.23589 9.67006 8.01511 10.418 8.01511C11.1659 8.01511 11.7524 8.23589 12.2254 8.6762C12.6996 9.1165 12.9354 9.67036 12.9354 10.3352C12.9354 11.0001 12.6983 11.5287 12.2254 11.969C11.7511 12.4093 11.1495 12.6301 10.418 12.6301C9.68646 12.6301 9.05961 12.4093 8.58538 11.969ZM12.5369 14.4948V27.9942H8.27259V14.4948H12.5369Z" fill="#FEFFFC"/>
<path d="M26.7321 15.8283C27.6616 16.8376 28.1258 18.2229 28.1258 19.9867V27.7558H24.0759V20.5342C24.0759 19.6448 23.8451 18.9534 23.3847 18.4614C22.9244 17.9693 22.3038 17.722 21.5269 17.722C20.75 17.722 20.1294 17.9681 19.669 18.4614C19.2087 18.9534 18.9779 19.6448 18.9779 20.5342V27.7558H14.9041V14.457H18.9779V16.2207C19.3903 15.6328 19.9466 15.1685 20.6453 14.8266C21.344 14.4847 22.1298 14.3144 23.0038 14.3144C24.5602 14.3144 25.8038 14.819 26.7321 15.8271V15.8283Z" fill="#FEFFFC"/>
</svg>
